<svg xmlns="http://www.w3.org/2000/svg" width="142" height="142" viewBox="0 0 142 142">
    <defs>
        <style>
            .prefix__cls-2{fill:#3cba92}
        </style>
    </defs>
    <g id="prefix__ic_menabung" transform="translate(-312 -437)">
        <g id="prefix__Group_30" data-name="Group 30" transform="translate(0 -126)">
            <g id="prefix__Rectangle_47" data-name="Rectangle 47" transform="translate(312 563)" style="stroke:#3cba92;stroke-width:3px;fill:none">
                <rect width="142" height="142" rx="29" style="stroke:none"/>
                <rect width="139" height="139" x="1.5" y="1.5" rx="27.5" style="fill:none"/>
            </g>
        </g>
        <g id="prefix__Group_76" data-name="Group 76" transform="translate(2 -435.399)">
            <g id="prefix__money" transform="translate(346 904.406)">
                <g id="prefix__Group_73" data-name="Group 73">
                    <g id="prefix__Group_72" data-name="Group 72">
                        <path id="prefix__Path_31" d="M76.379 42.754h-1.092v-9.839a4.62 4.62 0 0 0-1.959-3.775V27.8a3.528 3.528 0 0 0-3.528-3.523h-.816l3.124-4.577a3.373 3.373 0 0 0-.887-4.681L50.047.586a3.369 3.369 0 0 0-4.681.887l-18.277 26.82H22l1.23-12.422a.368.368 0 0 1 .232-.309 7.907 7.907 0 0 0 3.858-3.134.366.366 0 0 1 .346-.162l7.977.788a1.04 1.04 0 1 0 .2-2.07l-7.974-.784a2.434 2.434 0 0 0-2.305 1.116 5.813 5.813 0 0 1-2.836 2.3 2.431 2.431 0 0 0-1.568 2.051l-1.247 12.625h-1.327l1.941-19.645a1.289 1.289 0 0 1 1.409-1.156l16.12 1.592a1.04 1.04 0 1 0 .2-2.07L22.14 5.421a3.373 3.373 0 0 0-3.684 3.021l-1.563 15.835h-2.664A3.528 3.528 0 0 0 10.7 27.8v.914a4.628 4.628 0 0 0-2.7 4.2V68.37a4.628 4.628 0 0 0 4.623 4.623h58.041a4.628 4.628 0 0 0 4.623-4.623v-9.839h1.092a2.341 2.341 0 0 0 2.338-2.338v-11.1a2.341 2.341 0 0 0-2.338-2.339zM69.8 26.357a1.445 1.445 0 0 1 1.447 1.443v.53a4.635 4.635 0 0 0-.583-.038h-4.413l1.319-1.936zM47.085 2.644a1.281 1.281 0 0 1 .825-.54 1.307 1.307 0 0 1 .242-.023 1.28 1.28 0 0 1 .723.224l21.175 14.43a1.29 1.29 0 0 1 .339 1.79l-6.656 9.766h-1.6L65.4 23.5a2.431 2.431 0 0 0 .113-2.579 5.813 5.813 0 0 1-.7-3.588A2.432 2.432 0 0 0 63.764 15L52.787 7.522a2.432 2.432 0 0 0-2.558-.122 5.814 5.814 0 0 1-3.594.664 2.462 2.462 0 0 0-2.359 1.049L31.2 28.292h-1.6zm.458 17.662a8.582 8.582 0 0 0-8.55 7.986H33.72L46 10.281a.371.371 0 0 1 .3-.164.354.354 0 0 1 .047 0 7.908 7.908 0 0 0 4.888-.9.367.367 0 0 1 .381.023l10.977 7.481a.368.368 0 0 1 .161.346 7.905 7.905 0 0 0 .948 4.879.369.369 0 0 1-.021.386l-4.061 5.96h-3.526a8.583 8.583 0 0 0-8.551-7.985zm6.465 7.986h-12.93a6.491 6.491 0 0 1 12.93 0zM12.785 27.8a1.446 1.446 0 0 1 1.444-1.444h2.458l-.187 1.936h-3.715zm-2.7 5.114a2.546 2.546 0 0 1 2.543-2.543h58.036a2.545 2.545 0 0 1 2.543 2.543V35.8H10.088zM73.207 68.37a2.545 2.545 0 0 1-2.543 2.543H12.631a2.546 2.546 0 0 1-2.543-2.543v-2.886H15.7a1.04 1.04 0 1 0 0-2.08h-5.612V37.881h63.119v4.873h-9.89a7.9 7.9 0 0 0-7.1 4.445l-.014.026-.031.068a7.844 7.844 0 0 0-.393 1.006 7.891 7.891 0 0 0 7.534 10.229h9.889V63.4H22.357a1.04 1.04 0 1 0 0 2.08h50.85zm3.431-12.177a.258.258 0 0 1-.258.258H63.318a5.814 5.814 0 0 1-5.106-3.042q-.067-.123-.128-.25-.123-.254-.221-.521a5.814 5.814 0 0 1 0-3.99q.1-.267.221-.521.061-.127.128-.25a5.814 5.814 0 0 1 5.106-3.042h13.061a.258.258 0 0 1 .258.258v11.1z" class="prefix__cls-2" data-name="Path 31" transform="translate(-7.008 1)"/>
                    </g>
                </g>
                <g id="prefix__Group_75" data-name="Group 75" transform="translate(51.333 46.423)">
                    <g id="prefix__Group_74" data-name="Group 74">
                        <path id="prefix__Path_32" d="M372.3 325.627a4.22 4.22 0 1 0 4.22 4.22 4.225 4.225 0 0 0-4.22-4.22zm0 6.359a2.14 2.14 0 1 1 2.14-2.14 2.142 2.142 0 0 1-2.14 2.141z" class="prefix__cls-2" data-name="Path 32" transform="translate(-368.081 -325.627)"/>
                    </g>
                </g>
            </g>
        </g>
    </g>
</svg>
